<?xml version="1.0" encoding="utf-8"?>
<svg id="svg2" viewBox="0 0 60 60" xmlns="http://www.w3.org/2000/svg" width="500px" height="500px" xmlns:bx="https://boxy-svg.com"><title>mindcast-logo-fill</title><desc>Source: openclipart.org/detail/209545</desc><defs><bx:grid x="-15.091" y="-18.109" width="6.377" height="7.272"/><bx:export><bx:file format="svg" path="mindcast-logo-fill.svg"/></bx:export><bx:grid x="0" y="0" width="31.355" height="34.215"/></defs><g transform="matrix(0.19933, 0, 0, 0.213418, -19.943905, -42.200191)"><polygon style="fill: rgba(238, 136, 102, 0); stroke: rgb(0, 0, 0); stroke-width: 4.84557px;" points="125.849 238.627 125.42 444.795 156.775 444.795 156.775 273.72 219.485 342.15 219.485 307.935 156.775 239.505"/><polygon style="transform-origin: 329.228px 341.711px 0px; fill: rgba(238, 136, 102, 0); stroke: rgb(0, 0, 0); stroke-width: 4.84557px;" points="282.625 444.795 282.196 238.627 313.551 238.627 313.551 409.702 376.261 341.272 376.261 375.487 313.551 443.917" transform="matrix(-1, 0, 0, -1, 0, 0)"/><polyline style="fill: rgba(238, 136, 102, 0); stroke: rgb(0, 0, 0); stroke-width: 4.84557px;" points="188.773 307.935 188.13 342.706 250.84 411.136 313.55 342.706 313.55 308.491 250.84 376.921 188.13 308.491"/><polygon style="fill: rgba(238, 136, 102, 0); stroke: rgb(0, 0, 0); stroke-width: 4.84557px;" points="218.805 377.454 219.485 410.58 250.84 444.795 282.195 410.58 282.195 376.365 250.84 410.58"/></g></svg>