<?xml version="1.0" encoding="utf-8"?>
<svg id="svg2" viewBox="0 0 58 58" xmlns="http://www.w3.org/2000/svg" width="500px" height="500px" xmlns:bx="https://boxy-svg.com"><title>Mindcast-logo-mini</title><desc>Source: openclipart.org/detail/209545</desc><defs><bx:grid x="-15.091" y="-18.109" width="6.377" height="7.272"/><bx:export><bx:file format="svg" href="#svg-1" path="Sans titre 2.svg"/><bx:file format="png" href="#svg-1" path="Sans titre.png"/></bx:export><bx:grid x="0" y="0" width="31.355" height="34.215"/><bx:export><bx:file format="svg" path="Mindcast-logo-mini.svg"/><bx:file format="png" path="Mindcast-logo-mini.png"/></bx:export></defs><g id="svg-1" transform="matrix(1, 0, 0, 1, -26.348305, 11.707909)"><title>MIndcast-logo-</title><desc>Source: openclipart.org/detail/209545</desc><ellipse style="stroke: rgb(0, 0, 0); stroke-width: 0.128px;" cx="55.328" cy="17.335" rx="26.508" ry="26.277"/><g transform="matrix(0.128, 0, 0, 0.128, 23.170202, -26.460627)"><polyline style="fill: rgb(255, 255, 255); stroke: rgb(0, 0, 0);" points="125.849 238.627 125.42 444.795 156.775 444.795 156.775 273.72 219.485 342.15 219.485 307.935 156.775 239.505"/><polyline style="stroke-width: 1px; transform-origin: 329.228px 341.711px 0px; fill: rgb(255, 255, 255); stroke: rgb(0, 0, 0);" points="282.625 444.795 282.196 238.627 313.551 238.627 313.551 409.702 376.261 341.272 376.261 375.487 313.551 443.917" transform="matrix(-1, 0, 0, -1, 0, 0)"/><polyline style="fill: rgb(255, 255, 255); stroke: rgb(0, 0, 0);" points="188.773 307.935 188.13 342.706 250.84 411.136 313.55 342.706 313.55 308.491 250.84 376.921 188.13 308.491"/><polygon style="fill: rgb(255, 255, 255); stroke: rgb(0, 0, 0);" points="218.805 377.454 219.485 410.58 250.84 444.795 282.195 410.58 282.195 376.365 250.84 410.58"/></g></g></svg>